<svg
        xmlns="http://www.w3.org/2000/svg"
        width="20"
        height="20"
        viewBox="0 0 20 20"
        fill="none"
>
    <g clip-path="url(#clip0_1673_1616)">
        <g clip-path="url(#clip1_1673_1616)">
            <path
                    d="M13.0469 10.5066L19.1738 14.3799V6.46973L13.0469 10.5066Z"
                    fill="#484747"
            />
            <path
                    d="M1 6.46973V14.3799L7.12688 10.5066L1 6.46973Z"
                    fill="#484747"
            />
            <path
                    d="M18.0382 4.16602H2.13597C1.56917 4.16602 1.11937 4.58856 1.03418 5.13264L10.0871 11.0971L19.1399 5.13264C19.0548 4.58856 18.6049 4.16602 18.0382 4.16602Z"
                    fill="#484747"
            />
            <path
                    d="M12.0064 11.1925L10.3991 12.2512C10.3037 12.3136 10.1958 12.3443 10.0867 12.3443C9.9777 12.3443 9.86979 12.3136 9.77438 12.2512L8.16712 11.1914L1.03613 15.7019C1.12359 16.2415 1.57113 16.6606 2.13565 16.6606H18.0378C18.6024 16.6606 19.0499 16.2415 19.1374 15.7019L12.0064 11.1925Z"
                    fill="#484747"
            />
        </g>
    </g>
    <defs>
        <clipPath id="clip0_1673_1616">
            <rect
                    width="20"
                    height="19"
                    fill="white"
                    transform="translate(0 0.5)"
            />
        </clipPath>
        <clipPath id="clip1_1673_1616">
            <rect
                    width="18.1739"
                    height="18.1739"
                    fill="white"
                    transform="translate(1 1.32617)"
            />
        </clipPath>
    </defs>
</svg>